<mxfile host="app.diagrams.net" agent="Mozilla/5.0 (Windows NT 10.0; Win64; x64) AppleWebKit/537.36 (KHTML, like Gecko) Chrome/135.0.0.0 Safari/537.36 Edg/135.0.0.0" version="26.2.12">
  <diagram name="第 1 页" id="0-BgSRPMMAvl9MFesPaZ">
    <mxGraphModel dx="1248" dy="939" grid="1" gridSize="10" guides="1" tooltips="1" connect="1" arrows="1" fold="1" page="1" pageScale="1" pageWidth="1000" pageHeight="1000" math="1" shadow="0">
      <root>
        <mxCell id="0" />
        <mxCell id="1" parent="0" />
        <mxCell id="7kfpPNPAqjjxTRJiWUl3-74" value="" style="endArrow=none;html=1;rounded=0;fillColor=#d80073;strokeColor=#FF3399;strokeWidth=2;" edge="1" parent="1" source="7kfpPNPAqjjxTRJiWUl3-73" target="7kfpPNPAqjjxTRJiWUl3-18">
          <mxGeometry width="50" height="50" relative="1" as="geometry">
            <mxPoint x="270" y="310" as="sourcePoint" />
            <mxPoint x="386" y="79" as="targetPoint" />
          </mxGeometry>
        </mxCell>
        <mxCell id="7kfpPNPAqjjxTRJiWUl3-24" value="" style="endArrow=none;html=1;rounded=0;fillColor=#e1d5e7;strokeColor=#9673a6;strokeWidth=2;" edge="1" parent="1" target="7kfpPNPAqjjxTRJiWUl3-16">
          <mxGeometry width="50" height="50" relative="1" as="geometry">
            <mxPoint x="170" y="180" as="sourcePoint" />
            <mxPoint x="220" y="130" as="targetPoint" />
          </mxGeometry>
        </mxCell>
        <mxCell id="7kfpPNPAqjjxTRJiWUl3-22" value="" style="endArrow=none;html=1;rounded=0;fillColor=#dae8fc;strokeColor=#6c8ebf;strokeWidth=2;" edge="1" parent="1" source="7kfpPNPAqjjxTRJiWUl3-15">
          <mxGeometry width="50" height="50" relative="1" as="geometry">
            <mxPoint x="230" y="371" as="sourcePoint" />
            <mxPoint x="340" y="140" as="targetPoint" />
          </mxGeometry>
        </mxCell>
        <mxCell id="7kfpPNPAqjjxTRJiWUl3-21" value="" style="endArrow=none;html=1;rounded=0;fillColor=#fff2cc;strokeColor=#d6b656;strokeWidth=2;" edge="1" parent="1" target="7kfpPNPAqjjxTRJiWUl3-18">
          <mxGeometry width="50" height="50" relative="1" as="geometry">
            <mxPoint x="260" y="300" as="sourcePoint" />
            <mxPoint x="316" y="80" as="targetPoint" />
          </mxGeometry>
        </mxCell>
        <mxCell id="7kfpPNPAqjjxTRJiWUl3-20" value="" style="endArrow=none;html=1;rounded=0;fillColor=#d5e8d4;strokeColor=#82b366;strokeWidth=2;" edge="1" parent="1" source="7kfpPNPAqjjxTRJiWUl3-2" target="7kfpPNPAqjjxTRJiWUl3-23">
          <mxGeometry width="50" height="50" relative="1" as="geometry">
            <mxPoint x="110" y="310" as="sourcePoint" />
            <mxPoint x="420" y="310" as="targetPoint" />
          </mxGeometry>
        </mxCell>
        <mxCell id="7kfpPNPAqjjxTRJiWUl3-19" value="" style="endArrow=none;html=1;rounded=0;fillColor=#f8cecc;strokeColor=#b85450;strokeWidth=2;" edge="1" parent="1" target="7kfpPNPAqjjxTRJiWUl3-9">
          <mxGeometry width="50" height="50" relative="1" as="geometry">
            <mxPoint x="100" y="300" as="sourcePoint" />
            <mxPoint x="150" y="250" as="targetPoint" />
          </mxGeometry>
        </mxCell>
        <mxCell id="7kfpPNPAqjjxTRJiWUl3-1" value="X" style="ellipse;whiteSpace=wrap;html=1;fillColor=#f8cecc;strokeColor=#b85450;" vertex="1" parent="1">
          <mxGeometry x="90" y="290" width="20" height="20" as="geometry" />
        </mxCell>
        <mxCell id="7kfpPNPAqjjxTRJiWUl3-2" value="A" style="ellipse;whiteSpace=wrap;html=1;fillColor=#f8cecc;strokeColor=#b85450;gradientColor=light-dark(#d5e8d4, #ededed);gradientDirection=north;" vertex="1" parent="1">
          <mxGeometry x="130" y="290" width="20" height="20" as="geometry" />
        </mxCell>
        <mxCell id="7kfpPNPAqjjxTRJiWUl3-3" value="B" style="ellipse;whiteSpace=wrap;html=1;fillColor=#f8cecc;strokeColor=#b85450;" vertex="1" parent="1">
          <mxGeometry x="170" y="290" width="20" height="20" as="geometry" />
        </mxCell>
        <mxCell id="7kfpPNPAqjjxTRJiWUl3-4" value="C" style="ellipse;whiteSpace=wrap;html=1;fillColor=#f8cecc;strokeColor=#b85450;" vertex="1" parent="1">
          <mxGeometry x="210" y="290" width="20" height="20" as="geometry" />
        </mxCell>
        <mxCell id="7kfpPNPAqjjxTRJiWUl3-5" value="D" style="ellipse;whiteSpace=wrap;html=1;fillColor=#f8cecc;strokeColor=#b85450;gradientColor=light-dark(#fff2cc, #ededed);gradientDirection=north;" vertex="1" parent="1">
          <mxGeometry x="250" y="290" width="20" height="20" as="geometry" />
        </mxCell>
        <mxCell id="7kfpPNPAqjjxTRJiWUl3-6" value="E" style="ellipse;whiteSpace=wrap;html=1;fillColor=#f8cecc;strokeColor=#b85450;" vertex="1" parent="1">
          <mxGeometry x="290" y="290" width="20" height="20" as="geometry" />
        </mxCell>
        <mxCell id="7kfpPNPAqjjxTRJiWUl3-7" value="F" style="ellipse;whiteSpace=wrap;html=1;fillColor=#f8cecc;strokeColor=#b85450;" vertex="1" parent="1">
          <mxGeometry x="330" y="290" width="20" height="20" as="geometry" />
        </mxCell>
        <mxCell id="7kfpPNPAqjjxTRJiWUl3-8" value="G" style="ellipse;whiteSpace=wrap;html=1;fillColor=#f8cecc;strokeColor=#b85450;" vertex="1" parent="1">
          <mxGeometry x="370" y="290" width="20" height="20" as="geometry" />
        </mxCell>
        <mxCell id="7kfpPNPAqjjxTRJiWUl3-9" value="H" style="ellipse;whiteSpace=wrap;html=1;fillColor=#f8cecc;strokeColor=#b85450;" vertex="1" parent="1">
          <mxGeometry x="410" y="290" width="20" height="20" as="geometry" />
        </mxCell>
        <mxCell id="7kfpPNPAqjjxTRJiWUl3-10" value="I" style="ellipse;whiteSpace=wrap;html=1;fillColor=#d5e8d4;strokeColor=#82b366;" vertex="1" parent="1">
          <mxGeometry x="140" y="250" width="20" height="20" as="geometry" />
        </mxCell>
        <mxCell id="7kfpPNPAqjjxTRJiWUl3-11" value="J" style="ellipse;whiteSpace=wrap;html=1;fillColor=#d5e8d4;strokeColor=#82b366;" vertex="1" parent="1">
          <mxGeometry x="150" y="210" width="20" height="20" as="geometry" />
        </mxCell>
        <mxCell id="7kfpPNPAqjjxTRJiWUl3-12" value="K" style="ellipse;whiteSpace=wrap;html=1;fillColor=#d5e8d4;strokeColor=#82b366;gradientColor=light-dark(#e1d5e7, #ededed);gradientDirection=east;" vertex="1" parent="1">
          <mxGeometry x="160" y="170" width="20" height="20" as="geometry" />
        </mxCell>
        <mxCell id="7kfpPNPAqjjxTRJiWUl3-13" value="L" style="ellipse;whiteSpace=wrap;html=1;fillColor=#d5e8d4;strokeColor=#82b366;" vertex="1" parent="1">
          <mxGeometry x="170" y="130" width="20" height="20" as="geometry" />
        </mxCell>
        <mxCell id="7kfpPNPAqjjxTRJiWUl3-14" value="M" style="ellipse;whiteSpace=wrap;html=1;fillColor=#d5e8d4;strokeColor=#82b366;" vertex="1" parent="1">
          <mxGeometry x="180" y="90" width="20" height="20" as="geometry" />
        </mxCell>
        <mxCell id="7kfpPNPAqjjxTRJiWUl3-15" value="N" style="ellipse;whiteSpace=wrap;html=1;fillColor=#d5e8d4;strokeColor=#82b366;gradientColor=light-dark(#dae8fc, #ededed);gradientDirection=east;" vertex="1" parent="1">
          <mxGeometry x="190" y="50" width="20" height="20" as="geometry" />
        </mxCell>
        <mxCell id="7kfpPNPAqjjxTRJiWUl3-16" value="O" style="ellipse;whiteSpace=wrap;html=1;fillColor=#fff2cc;strokeColor=#d6b656;gradientColor=light-dark(#e1d5e7, #ededed);gradientDirection=west;" vertex="1" parent="1">
          <mxGeometry x="290" y="210" width="20" height="20" as="geometry" />
        </mxCell>
        <mxCell id="7kfpPNPAqjjxTRJiWUl3-17" value="P" style="ellipse;whiteSpace=wrap;html=1;fillColor=#fff2cc;strokeColor=#d6b656;gradientColor=light-dark(#dae8fc, #ededed);gradientDirection=west;" vertex="1" parent="1">
          <mxGeometry x="330" y="130" width="20" height="20" as="geometry" />
        </mxCell>
        <mxCell id="7kfpPNPAqjjxTRJiWUl3-18" value="Q" style="ellipse;whiteSpace=wrap;html=1;fillColor=#fff2cc;strokeColor=#d6b656;gradientColor=light-dark(#ff66b3, #ededed);gradientDirection=east;" vertex="1" parent="1">
          <mxGeometry x="370" y="50" width="20" height="20" as="geometry" />
        </mxCell>
        <mxCell id="7kfpPNPAqjjxTRJiWUl3-23" value="Y" style="ellipse;whiteSpace=wrap;html=1;fillColor=#d5e8d4;strokeColor=#82b366;" vertex="1" parent="1">
          <mxGeometry x="200" y="10" width="20" height="20" as="geometry" />
        </mxCell>
        <mxCell id="7kfpPNPAqjjxTRJiWUl3-53" style="edgeStyle=orthogonalEdgeStyle;rounded=1;orthogonalLoop=1;jettySize=auto;html=1;exitX=0.5;exitY=1;exitDx=0;exitDy=0;entryX=0.5;entryY=1;entryDx=0;entryDy=0;curved=0;" edge="1" parent="1" source="7kfpPNPAqjjxTRJiWUl3-33" target="7kfpPNPAqjjxTRJiWUl3-34">
          <mxGeometry relative="1" as="geometry" />
        </mxCell>
        <mxCell id="7kfpPNPAqjjxTRJiWUl3-54" style="edgeStyle=orthogonalEdgeStyle;rounded=1;orthogonalLoop=1;jettySize=auto;html=1;exitX=0.5;exitY=1;exitDx=0;exitDy=0;entryX=0.5;entryY=1;entryDx=0;entryDy=0;curved=0;" edge="1" parent="1" source="7kfpPNPAqjjxTRJiWUl3-33" target="7kfpPNPAqjjxTRJiWUl3-35">
          <mxGeometry relative="1" as="geometry" />
        </mxCell>
        <mxCell id="7kfpPNPAqjjxTRJiWUl3-55" style="edgeStyle=orthogonalEdgeStyle;rounded=1;orthogonalLoop=1;jettySize=auto;html=1;exitX=0.5;exitY=1;exitDx=0;exitDy=0;entryX=0.5;entryY=1;entryDx=0;entryDy=0;curved=0;" edge="1" parent="1" source="7kfpPNPAqjjxTRJiWUl3-33" target="7kfpPNPAqjjxTRJiWUl3-36">
          <mxGeometry relative="1" as="geometry" />
        </mxCell>
        <mxCell id="7kfpPNPAqjjxTRJiWUl3-56" style="edgeStyle=orthogonalEdgeStyle;rounded=1;orthogonalLoop=1;jettySize=auto;html=1;exitX=0.5;exitY=1;exitDx=0;exitDy=0;entryX=0.5;entryY=1;entryDx=0;entryDy=0;curved=0;" edge="1" parent="1" source="7kfpPNPAqjjxTRJiWUl3-33" target="7kfpPNPAqjjxTRJiWUl3-37">
          <mxGeometry relative="1" as="geometry" />
        </mxCell>
        <mxCell id="7kfpPNPAqjjxTRJiWUl3-57" style="edgeStyle=orthogonalEdgeStyle;rounded=1;orthogonalLoop=1;jettySize=auto;html=1;exitX=0.5;exitY=1;exitDx=0;exitDy=0;entryX=0.5;entryY=1;entryDx=0;entryDy=0;curved=0;" edge="1" parent="1" source="7kfpPNPAqjjxTRJiWUl3-33" target="7kfpPNPAqjjxTRJiWUl3-38">
          <mxGeometry relative="1" as="geometry" />
        </mxCell>
        <mxCell id="7kfpPNPAqjjxTRJiWUl3-58" style="edgeStyle=orthogonalEdgeStyle;rounded=1;orthogonalLoop=1;jettySize=auto;html=1;exitX=0.5;exitY=1;exitDx=0;exitDy=0;entryX=0.5;entryY=1;entryDx=0;entryDy=0;curved=0;" edge="1" parent="1" source="7kfpPNPAqjjxTRJiWUl3-33" target="7kfpPNPAqjjxTRJiWUl3-39">
          <mxGeometry relative="1" as="geometry" />
        </mxCell>
        <mxCell id="7kfpPNPAqjjxTRJiWUl3-59" style="edgeStyle=orthogonalEdgeStyle;rounded=1;orthogonalLoop=1;jettySize=auto;html=1;exitX=0.5;exitY=1;exitDx=0;exitDy=0;entryX=0.5;entryY=1;entryDx=0;entryDy=0;curved=0;" edge="1" parent="1" source="7kfpPNPAqjjxTRJiWUl3-33" target="7kfpPNPAqjjxTRJiWUl3-40">
          <mxGeometry relative="1" as="geometry" />
        </mxCell>
        <mxCell id="7kfpPNPAqjjxTRJiWUl3-60" style="edgeStyle=orthogonalEdgeStyle;rounded=1;orthogonalLoop=1;jettySize=auto;html=1;exitX=0.5;exitY=1;exitDx=0;exitDy=0;entryX=0.5;entryY=1;entryDx=0;entryDy=0;curved=0;" edge="1" parent="1" source="7kfpPNPAqjjxTRJiWUl3-33" target="7kfpPNPAqjjxTRJiWUl3-41">
          <mxGeometry relative="1" as="geometry" />
        </mxCell>
        <mxCell id="7kfpPNPAqjjxTRJiWUl3-33" value="S" style="ellipse;whiteSpace=wrap;html=1;" vertex="1" parent="1">
          <mxGeometry x="90" y="650" width="20" height="20" as="geometry" />
        </mxCell>
        <mxCell id="7kfpPNPAqjjxTRJiWUl3-61" style="edgeStyle=orthogonalEdgeStyle;rounded=0;orthogonalLoop=1;jettySize=auto;html=1;exitX=1;exitY=0.5;exitDx=0;exitDy=0;entryX=1;entryY=0.5;entryDx=0;entryDy=0;curved=1;" edge="1" parent="1" source="7kfpPNPAqjjxTRJiWUl3-34" target="7kfpPNPAqjjxTRJiWUl3-42">
          <mxGeometry relative="1" as="geometry">
            <Array as="points">
              <mxPoint x="190" y="660" />
              <mxPoint x="190" y="620" />
            </Array>
          </mxGeometry>
        </mxCell>
        <mxCell id="7kfpPNPAqjjxTRJiWUl3-62" style="edgeStyle=orthogonalEdgeStyle;rounded=0;orthogonalLoop=1;jettySize=auto;html=1;exitX=1;exitY=0.5;exitDx=0;exitDy=0;entryX=1;entryY=0.5;entryDx=0;entryDy=0;curved=1;" edge="1" parent="1" source="7kfpPNPAqjjxTRJiWUl3-34" target="7kfpPNPAqjjxTRJiWUl3-43">
          <mxGeometry relative="1" as="geometry">
            <Array as="points">
              <mxPoint x="200" y="660" />
              <mxPoint x="200" y="580" />
            </Array>
          </mxGeometry>
        </mxCell>
        <mxCell id="7kfpPNPAqjjxTRJiWUl3-63" style="edgeStyle=orthogonalEdgeStyle;rounded=0;orthogonalLoop=1;jettySize=auto;html=1;exitX=1;exitY=0.5;exitDx=0;exitDy=0;entryX=1;entryY=0.5;entryDx=0;entryDy=0;curved=1;" edge="1" parent="1" source="7kfpPNPAqjjxTRJiWUl3-34" target="7kfpPNPAqjjxTRJiWUl3-44">
          <mxGeometry relative="1" as="geometry">
            <Array as="points">
              <mxPoint x="210" y="660" />
              <mxPoint x="210" y="540" />
            </Array>
          </mxGeometry>
        </mxCell>
        <mxCell id="7kfpPNPAqjjxTRJiWUl3-64" style="edgeStyle=orthogonalEdgeStyle;rounded=0;orthogonalLoop=1;jettySize=auto;html=1;exitX=1;exitY=0.5;exitDx=0;exitDy=0;entryX=1;entryY=0.5;entryDx=0;entryDy=0;curved=1;" edge="1" parent="1" source="7kfpPNPAqjjxTRJiWUl3-34" target="7kfpPNPAqjjxTRJiWUl3-45">
          <mxGeometry relative="1" as="geometry">
            <Array as="points">
              <mxPoint x="220" y="660" />
              <mxPoint x="220" y="500" />
            </Array>
          </mxGeometry>
        </mxCell>
        <mxCell id="7kfpPNPAqjjxTRJiWUl3-65" style="edgeStyle=orthogonalEdgeStyle;rounded=0;orthogonalLoop=1;jettySize=auto;html=1;exitX=1;exitY=0.5;exitDx=0;exitDy=0;entryX=1;entryY=0.5;entryDx=0;entryDy=0;curved=1;" edge="1" parent="1" source="7kfpPNPAqjjxTRJiWUl3-34" target="7kfpPNPAqjjxTRJiWUl3-46">
          <mxGeometry relative="1" as="geometry">
            <Array as="points">
              <mxPoint x="230" y="660" />
              <mxPoint x="230" y="460" />
            </Array>
          </mxGeometry>
        </mxCell>
        <mxCell id="7kfpPNPAqjjxTRJiWUl3-66" style="edgeStyle=orthogonalEdgeStyle;rounded=0;orthogonalLoop=1;jettySize=auto;html=1;exitX=1;exitY=0.5;exitDx=0;exitDy=0;entryX=1;entryY=0.5;entryDx=0;entryDy=0;curved=1;" edge="1" parent="1" source="7kfpPNPAqjjxTRJiWUl3-34" target="7kfpPNPAqjjxTRJiWUl3-47">
          <mxGeometry relative="1" as="geometry">
            <Array as="points">
              <mxPoint x="240" y="660" />
              <mxPoint x="240" y="420" />
            </Array>
          </mxGeometry>
        </mxCell>
        <mxCell id="7kfpPNPAqjjxTRJiWUl3-67" style="edgeStyle=orthogonalEdgeStyle;rounded=0;orthogonalLoop=1;jettySize=auto;html=1;exitX=1;exitY=0.5;exitDx=0;exitDy=0;entryX=1;entryY=0.5;entryDx=0;entryDy=0;curved=1;" edge="1" parent="1" source="7kfpPNPAqjjxTRJiWUl3-34" target="7kfpPNPAqjjxTRJiWUl3-51">
          <mxGeometry relative="1" as="geometry">
            <Array as="points">
              <mxPoint x="250" y="660" />
              <mxPoint x="250" y="380" />
            </Array>
          </mxGeometry>
        </mxCell>
        <mxCell id="7kfpPNPAqjjxTRJiWUl3-34" value="1" style="ellipse;whiteSpace=wrap;html=1;" vertex="1" parent="1">
          <mxGeometry x="130" y="650" width="20" height="20" as="geometry" />
        </mxCell>
        <mxCell id="7kfpPNPAqjjxTRJiWUl3-35" value="1" style="ellipse;whiteSpace=wrap;html=1;" vertex="1" parent="1">
          <mxGeometry x="170" y="650" width="20" height="20" as="geometry" />
        </mxCell>
        <mxCell id="7kfpPNPAqjjxTRJiWUl3-36" value="1" style="ellipse;whiteSpace=wrap;html=1;" vertex="1" parent="1">
          <mxGeometry x="210" y="650" width="20" height="20" as="geometry" />
        </mxCell>
        <mxCell id="7kfpPNPAqjjxTRJiWUl3-68" style="edgeStyle=orthogonalEdgeStyle;rounded=0;orthogonalLoop=1;jettySize=auto;html=1;exitX=1;exitY=0.5;exitDx=0;exitDy=0;entryX=1;entryY=0.5;entryDx=0;entryDy=0;curved=1;" edge="1" parent="1" source="7kfpPNPAqjjxTRJiWUl3-37" target="7kfpPNPAqjjxTRJiWUl3-48">
          <mxGeometry relative="1" as="geometry">
            <Array as="points">
              <mxPoint x="340" y="660" />
              <mxPoint x="340" y="580" />
            </Array>
          </mxGeometry>
        </mxCell>
        <mxCell id="7kfpPNPAqjjxTRJiWUl3-69" style="edgeStyle=orthogonalEdgeStyle;rounded=0;orthogonalLoop=1;jettySize=auto;html=1;exitX=1;exitY=0.5;exitDx=0;exitDy=0;entryX=1;entryY=0.5;entryDx=0;entryDy=0;curved=1;" edge="1" parent="1" source="7kfpPNPAqjjxTRJiWUl3-37" target="7kfpPNPAqjjxTRJiWUl3-49">
          <mxGeometry relative="1" as="geometry">
            <Array as="points">
              <mxPoint x="380" y="660" />
              <mxPoint x="380" y="500" />
            </Array>
          </mxGeometry>
        </mxCell>
        <mxCell id="7kfpPNPAqjjxTRJiWUl3-70" style="edgeStyle=orthogonalEdgeStyle;rounded=0;orthogonalLoop=1;jettySize=auto;html=1;exitX=1;exitY=0.5;exitDx=0;exitDy=0;entryX=1;entryY=0.5;entryDx=0;entryDy=0;curved=1;" edge="1" parent="1" source="7kfpPNPAqjjxTRJiWUl3-37" target="7kfpPNPAqjjxTRJiWUl3-50">
          <mxGeometry relative="1" as="geometry">
            <Array as="points">
              <mxPoint x="430" y="660" />
              <mxPoint x="430" y="420" />
            </Array>
          </mxGeometry>
        </mxCell>
        <mxCell id="7kfpPNPAqjjxTRJiWUl3-37" value="1" style="ellipse;whiteSpace=wrap;html=1;" vertex="1" parent="1">
          <mxGeometry x="250" y="650" width="20" height="20" as="geometry" />
        </mxCell>
        <mxCell id="7kfpPNPAqjjxTRJiWUl3-38" value="1" style="ellipse;whiteSpace=wrap;html=1;" vertex="1" parent="1">
          <mxGeometry x="290" y="650" width="20" height="20" as="geometry" />
        </mxCell>
        <mxCell id="7kfpPNPAqjjxTRJiWUl3-39" value="1" style="ellipse;whiteSpace=wrap;html=1;" vertex="1" parent="1">
          <mxGeometry x="330" y="650" width="20" height="20" as="geometry" />
        </mxCell>
        <mxCell id="7kfpPNPAqjjxTRJiWUl3-40" value="1" style="ellipse;whiteSpace=wrap;html=1;" vertex="1" parent="1">
          <mxGeometry x="370" y="650" width="20" height="20" as="geometry" />
        </mxCell>
        <mxCell id="7kfpPNPAqjjxTRJiWUl3-41" value="1" style="ellipse;whiteSpace=wrap;html=1;" vertex="1" parent="1">
          <mxGeometry x="410" y="650" width="20" height="20" as="geometry" />
        </mxCell>
        <mxCell id="7kfpPNPAqjjxTRJiWUl3-42" value="2" style="ellipse;whiteSpace=wrap;html=1;" vertex="1" parent="1">
          <mxGeometry x="140" y="610" width="20" height="20" as="geometry" />
        </mxCell>
        <mxCell id="7kfpPNPAqjjxTRJiWUl3-43" value="2" style="ellipse;whiteSpace=wrap;html=1;" vertex="1" parent="1">
          <mxGeometry x="150" y="570" width="20" height="20" as="geometry" />
        </mxCell>
        <mxCell id="7kfpPNPAqjjxTRJiWUl3-44" value="2" style="ellipse;whiteSpace=wrap;html=1;" vertex="1" parent="1">
          <mxGeometry x="160" y="530" width="20" height="20" as="geometry" />
        </mxCell>
        <mxCell id="7kfpPNPAqjjxTRJiWUl3-45" value="2" style="ellipse;whiteSpace=wrap;html=1;" vertex="1" parent="1">
          <mxGeometry x="170" y="490" width="20" height="20" as="geometry" />
        </mxCell>
        <mxCell id="7kfpPNPAqjjxTRJiWUl3-46" value="2" style="ellipse;whiteSpace=wrap;html=1;" vertex="1" parent="1">
          <mxGeometry x="180" y="450" width="20" height="20" as="geometry" />
        </mxCell>
        <mxCell id="7kfpPNPAqjjxTRJiWUl3-47" value="2" style="ellipse;whiteSpace=wrap;html=1;" vertex="1" parent="1">
          <mxGeometry x="190" y="410" width="20" height="20" as="geometry" />
        </mxCell>
        <mxCell id="7kfpPNPAqjjxTRJiWUl3-48" value="2" style="ellipse;whiteSpace=wrap;html=1;" vertex="1" parent="1">
          <mxGeometry x="290" y="570" width="20" height="20" as="geometry" />
        </mxCell>
        <mxCell id="7kfpPNPAqjjxTRJiWUl3-49" value="2" style="ellipse;whiteSpace=wrap;html=1;" vertex="1" parent="1">
          <mxGeometry x="330" y="490" width="20" height="20" as="geometry" />
        </mxCell>
        <mxCell id="7kfpPNPAqjjxTRJiWUl3-82" style="edgeStyle=orthogonalEdgeStyle;rounded=1;orthogonalLoop=1;jettySize=auto;html=1;exitX=0.5;exitY=0;exitDx=0;exitDy=0;entryX=0.5;entryY=0;entryDx=0;entryDy=0;curved=0;" edge="1" parent="1" source="7kfpPNPAqjjxTRJiWUl3-50" target="7kfpPNPAqjjxTRJiWUl3-79">
          <mxGeometry relative="1" as="geometry" />
        </mxCell>
        <mxCell id="7kfpPNPAqjjxTRJiWUl3-83" style="edgeStyle=orthogonalEdgeStyle;rounded=1;orthogonalLoop=1;jettySize=auto;html=1;exitX=0.5;exitY=0;exitDx=0;exitDy=0;entryX=0.5;entryY=0;entryDx=0;entryDy=0;curved=0;" edge="1" parent="1" source="7kfpPNPAqjjxTRJiWUl3-50" target="7kfpPNPAqjjxTRJiWUl3-80">
          <mxGeometry relative="1" as="geometry" />
        </mxCell>
        <mxCell id="7kfpPNPAqjjxTRJiWUl3-84" style="edgeStyle=orthogonalEdgeStyle;rounded=1;orthogonalLoop=1;jettySize=auto;html=1;exitX=0.5;exitY=0;exitDx=0;exitDy=0;entryX=0.5;entryY=0;entryDx=0;entryDy=0;curved=0;" edge="1" parent="1" source="7kfpPNPAqjjxTRJiWUl3-50" target="7kfpPNPAqjjxTRJiWUl3-81">
          <mxGeometry relative="1" as="geometry" />
        </mxCell>
        <mxCell id="7kfpPNPAqjjxTRJiWUl3-115" style="rounded=0;orthogonalLoop=1;jettySize=auto;html=1;exitX=0;exitY=0;exitDx=0;exitDy=0;entryX=1;entryY=1;entryDx=0;entryDy=0;" edge="1" parent="1" source="7kfpPNPAqjjxTRJiWUl3-50" target="7kfpPNPAqjjxTRJiWUl3-114">
          <mxGeometry relative="1" as="geometry" />
        </mxCell>
        <mxCell id="7kfpPNPAqjjxTRJiWUl3-50" value="2" style="ellipse;whiteSpace=wrap;html=1;" vertex="1" parent="1">
          <mxGeometry x="370" y="410" width="20" height="20" as="geometry" />
        </mxCell>
        <mxCell id="7kfpPNPAqjjxTRJiWUl3-51" value="2" style="ellipse;whiteSpace=wrap;html=1;" vertex="1" parent="1">
          <mxGeometry x="200" y="370" width="20" height="20" as="geometry" />
        </mxCell>
        <mxCell id="7kfpPNPAqjjxTRJiWUl3-71" value="&lt;font style=&quot;color: rgb(0, 0, 0);&quot;&gt;R&lt;/font&gt;" style="ellipse;whiteSpace=wrap;html=1;fillColor=#FF99CC;fontColor=#ffffff;strokeColor=#FF0080;fillStyle=auto;" vertex="1" parent="1">
          <mxGeometry x="410" y="50" width="20" height="20" as="geometry" />
        </mxCell>
        <mxCell id="7kfpPNPAqjjxTRJiWUl3-73" value="&lt;font style=&quot;color: rgb(0, 0, 0);&quot;&gt;T&lt;/font&gt;" style="ellipse;whiteSpace=wrap;html=1;fillColor=#FF99CC;fontColor=#ffffff;strokeColor=#FF0080;fillStyle=auto;" vertex="1" parent="1">
          <mxGeometry x="490" y="50" width="20" height="20" as="geometry" />
        </mxCell>
        <mxCell id="7kfpPNPAqjjxTRJiWUl3-79" value="3" style="ellipse;whiteSpace=wrap;html=1;" vertex="1" parent="1">
          <mxGeometry x="410" y="410" width="20" height="20" as="geometry" />
        </mxCell>
        <mxCell id="7kfpPNPAqjjxTRJiWUl3-80" value="3" style="ellipse;whiteSpace=wrap;html=1;" vertex="1" parent="1">
          <mxGeometry x="450" y="410" width="20" height="20" as="geometry" />
        </mxCell>
        <mxCell id="7kfpPNPAqjjxTRJiWUl3-81" value="3" style="ellipse;whiteSpace=wrap;html=1;" vertex="1" parent="1">
          <mxGeometry x="490" y="410" width="20" height="20" as="geometry" />
        </mxCell>
        <mxCell id="7kfpPNPAqjjxTRJiWUl3-72" value="&lt;font style=&quot;color: rgb(0, 0, 0);&quot;&gt;S&lt;/font&gt;" style="ellipse;whiteSpace=wrap;html=1;fillColor=#FF99CC;fontColor=#ffffff;strokeColor=#FF0080;fillStyle=auto;" vertex="1" parent="1">
          <mxGeometry x="450" y="50" width="20" height="20" as="geometry" />
        </mxCell>
        <mxCell id="7kfpPNPAqjjxTRJiWUl3-94" style="edgeStyle=orthogonalEdgeStyle;rounded=0;orthogonalLoop=1;jettySize=auto;html=1;exitX=1;exitY=0.5;exitDx=0;exitDy=0;" edge="1" parent="1" source="7kfpPNPAqjjxTRJiWUl3-93">
          <mxGeometry relative="1" as="geometry">
            <mxPoint x="724" y="49.7619047619047" as="targetPoint" />
          </mxGeometry>
        </mxCell>
        <mxCell id="7kfpPNPAqjjxTRJiWUl3-93" value="X" style="ellipse;whiteSpace=wrap;html=1;fillColor=#f8cecc;strokeColor=#b85450;" vertex="1" parent="1">
          <mxGeometry x="614" y="40" width="20" height="20" as="geometry" />
        </mxCell>
        <mxCell id="7kfpPNPAqjjxTRJiWUl3-95" value="Y" style="ellipse;whiteSpace=wrap;html=1;fillColor=#d5e8d4;strokeColor=#82b366;" vertex="1" parent="1">
          <mxGeometry x="724" y="40" width="20" height="20" as="geometry" />
        </mxCell>
        <mxCell id="7kfpPNPAqjjxTRJiWUl3-96" value="Min #Tranfers" style="text;html=1;align=center;verticalAlign=middle;whiteSpace=wrap;rounded=0;" vertex="1" parent="1">
          <mxGeometry x="624" y="30" width="110" height="20" as="geometry" />
        </mxCell>
        <mxCell id="7kfpPNPAqjjxTRJiWUl3-97" value="Queue" style="text;html=1;align=center;verticalAlign=middle;whiteSpace=wrap;rounded=0;" vertex="1" parent="1">
          <mxGeometry x="649" y="130" width="60" height="30" as="geometry" />
        </mxCell>
        <mxCell id="7kfpPNPAqjjxTRJiWUl3-98" value="" style="endArrow=classic;html=1;rounded=0;" edge="1" parent="1">
          <mxGeometry width="50" height="50" relative="1" as="geometry">
            <mxPoint x="618" y="160" as="sourcePoint" />
            <mxPoint x="744" y="160" as="targetPoint" />
          </mxGeometry>
        </mxCell>
        <mxCell id="7kfpPNPAqjjxTRJiWUl3-99" value="X&lt;div&gt;&lt;span style=&quot;background-color: light-dark(#ffffff, var(--ge-dark-color, #121212));&quot;&gt;&lt;font style=&quot;color: rgb(184, 84, 80);&quot;&gt;A B C D E F G H&lt;/font&gt;&lt;/span&gt;&lt;/div&gt;&lt;div&gt;&lt;span style=&quot;background-color: light-dark(#ffffff, var(--ge-dark-color, #121212));&quot;&gt;&lt;font style=&quot;color: rgb(184, 84, 80);&quot;&gt;A B C D E F G&lt;/font&gt;&lt;/span&gt;&lt;/div&gt;&lt;div&gt;&lt;span style=&quot;background-color: light-dark(#ffffff, var(--ge-dark-color, #121212));&quot;&gt;&lt;font style=&quot;color: rgb(184, 84, 80);&quot;&gt;A B C D E F&lt;/font&gt;&lt;/span&gt;&lt;/div&gt;&lt;div&gt;&lt;span style=&quot;background-color: light-dark(#ffffff, var(--ge-dark-color, #121212));&quot;&gt;&lt;font style=&quot;color: rgb(184, 84, 80);&quot;&gt;A B C D E&lt;/font&gt;&lt;/span&gt;&lt;/div&gt;&lt;div&gt;&lt;span style=&quot;background-color: light-dark(#ffffff, var(--ge-dark-color, #121212));&quot;&gt;&lt;font style=&quot;color: rgb(184, 84, 80);&quot;&gt;A B C D&lt;/font&gt;&lt;/span&gt;&lt;/div&gt;&lt;div&gt;&lt;font style=&quot;color: rgb(214, 182, 86);&quot;&gt;O P Q&lt;/font&gt; &lt;font style=&quot;color: rgb(184, 84, 80);&quot;&gt;A B C&lt;/font&gt;&lt;/div&gt;&lt;div&gt;&lt;font style=&quot;color: rgb(214, 182, 86);&quot;&gt;O P Q&lt;/font&gt; &lt;font style=&quot;color: rgb(184, 84, 80);&quot;&gt;A B&lt;/font&gt;&lt;/div&gt;&lt;div&gt;&lt;font style=&quot;color: rgb(214, 182, 86);&quot;&gt;O P Q&lt;/font&gt; &lt;font style=&quot;color: rgb(184, 84, 80);&quot;&gt;A&lt;/font&gt;&lt;/div&gt;&lt;div&gt;&lt;font style=&quot;color: rgb(130, 179, 102);&quot;&gt;I J K L M N Y&lt;/font&gt; &lt;font style=&quot;color: rgb(214, 182, 86);&quot;&gt;O P Q&lt;/font&gt;&lt;/div&gt;&lt;div&gt;&lt;br&gt;&lt;/div&gt;" style="text;html=1;align=left;verticalAlign=middle;whiteSpace=wrap;rounded=0;" vertex="1" parent="1">
          <mxGeometry x="614" y="170" width="141" height="160" as="geometry" />
        </mxCell>
        <mxCell id="7kfpPNPAqjjxTRJiWUl3-103" value="Q1:" style="text;html=1;align=center;verticalAlign=middle;whiteSpace=wrap;rounded=0;" vertex="1" parent="1">
          <mxGeometry x="580" y="35" width="30" height="30" as="geometry" />
        </mxCell>
        <mxCell id="7kfpPNPAqjjxTRJiWUl3-104" style="edgeStyle=orthogonalEdgeStyle;rounded=0;orthogonalLoop=1;jettySize=auto;html=1;exitX=1;exitY=0.5;exitDx=0;exitDy=0;" edge="1" parent="1" source="7kfpPNPAqjjxTRJiWUl3-105">
          <mxGeometry relative="1" as="geometry">
            <mxPoint x="724" y="89.7619047619047" as="targetPoint" />
          </mxGeometry>
        </mxCell>
        <mxCell id="7kfpPNPAqjjxTRJiWUl3-105" value="X" style="ellipse;whiteSpace=wrap;html=1;fillColor=#f8cecc;strokeColor=#b85450;" vertex="1" parent="1">
          <mxGeometry x="614" y="80" width="20" height="20" as="geometry" />
        </mxCell>
        <mxCell id="7kfpPNPAqjjxTRJiWUl3-106" value="$$\forall$$" style="ellipse;whiteSpace=wrap;html=1;" vertex="1" parent="1">
          <mxGeometry x="724" y="80" width="20" height="20" as="geometry" />
        </mxCell>
        <mxCell id="7kfpPNPAqjjxTRJiWUl3-107" value="Min #Tranfers" style="text;html=1;align=center;verticalAlign=middle;whiteSpace=wrap;rounded=0;" vertex="1" parent="1">
          <mxGeometry x="624" y="70" width="110" height="20" as="geometry" />
        </mxCell>
        <mxCell id="7kfpPNPAqjjxTRJiWUl3-108" value="Q2:" style="text;html=1;align=center;verticalAlign=middle;whiteSpace=wrap;rounded=0;" vertex="1" parent="1">
          <mxGeometry x="580" y="75" width="30" height="30" as="geometry" />
        </mxCell>
        <mxCell id="7kfpPNPAqjjxTRJiWUl3-112" value="&lt;font color=&quot;#000000&quot;&gt;U&lt;/font&gt;" style="ellipse;whiteSpace=wrap;html=1;fillColor=#ffe6cc;strokeColor=#E37800;fillStyle=auto;" vertex="1" parent="1">
          <mxGeometry x="330" y="20" width="20" height="20" as="geometry" />
        </mxCell>
        <mxCell id="7kfpPNPAqjjxTRJiWUl3-113" value="" style="endArrow=none;html=1;rounded=0;fillColor=#ffe6cc;strokeColor=#E37800;strokeWidth=2;" edge="1" parent="1" source="7kfpPNPAqjjxTRJiWUl3-18" target="7kfpPNPAqjjxTRJiWUl3-112">
          <mxGeometry width="50" height="50" relative="1" as="geometry">
            <mxPoint x="270" y="310" as="sourcePoint" />
            <mxPoint x="386" y="79" as="targetPoint" />
          </mxGeometry>
        </mxCell>
        <mxCell id="7kfpPNPAqjjxTRJiWUl3-114" value="&lt;font color=&quot;#000000&quot;&gt;3&lt;/font&gt;" style="ellipse;whiteSpace=wrap;html=1;fillStyle=auto;" vertex="1" parent="1">
          <mxGeometry x="330" y="380" width="20" height="20" as="geometry" />
        </mxCell>
        <mxCell id="7kfpPNPAqjjxTRJiWUl3-116" value="&lt;div&gt;&lt;font style=&quot;color: rgb(227, 120, 0);&quot;&gt;U&lt;/font&gt;&lt;font style=&quot;color: rgb(130, 179, 102);&quot;&gt; &lt;/font&gt;&lt;font style=&quot;color: rgb(255, 51, 153);&quot;&gt;R S T&lt;/font&gt;&lt;font style=&quot;color: rgb(130, 179, 102);&quot;&gt;&amp;nbsp;&lt;/font&gt;&lt;font style=&quot;background-color: transparent; color: rgb(130, 179, 102);&quot;&gt;I J K L M N Y&lt;/font&gt;&lt;span style=&quot;background-color: transparent; color: light-dark(rgb(0, 0, 0), rgb(255, 255, 255));&quot;&gt; &lt;/span&gt;&lt;font style=&quot;background-color: transparent; color: rgb(214, 182, 86);&quot;&gt;O P&lt;/font&gt;&lt;/div&gt;&lt;div&gt;&lt;font style=&quot;background-color: transparent; color: rgb(214, 182, 86);&quot;&gt;&lt;font style=&quot;color: rgb(227, 120, 0);&quot;&gt;U&lt;/font&gt;&lt;font style=&quot;color: rgb(130, 179, 102);&quot;&gt;&amp;nbsp;&lt;/font&gt;&lt;font style=&quot;color: rgb(255, 51, 153);&quot;&gt;R S T&lt;/font&gt;&lt;font style=&quot;color: rgb(130, 179, 102);&quot;&gt;&amp;nbsp;&lt;/font&gt;&lt;font style=&quot;background-color: transparent; color: rgb(130, 179, 102);&quot;&gt;I J K L M N Y&lt;/font&gt;&lt;span style=&quot;color: light-dark(rgb(0, 0, 0), rgb(255, 255, 255)); background-color: transparent;&quot;&gt;&amp;nbsp;&lt;/span&gt;&lt;font style=&quot;background-color: transparent; color: rgb(214, 182, 86);&quot;&gt;O&lt;/font&gt;&lt;/font&gt;&lt;/div&gt;&lt;div&gt;&lt;font style=&quot;background-color: transparent; color: rgb(214, 182, 86);&quot;&gt;&lt;font style=&quot;background-color: transparent; color: rgb(214, 182, 86);&quot;&gt;&lt;font style=&quot;color: rgb(227, 120, 0);&quot;&gt;U&lt;/font&gt;&lt;font style=&quot;color: rgb(130, 179, 102);&quot;&gt;&amp;nbsp;&lt;/font&gt;&lt;font style=&quot;color: rgb(255, 51, 153);&quot;&gt;R S T&lt;/font&gt;&lt;font style=&quot;color: rgb(130, 179, 102);&quot;&gt;&amp;nbsp;&lt;/font&gt;&lt;font style=&quot;background-color: transparent; color: rgb(130, 179, 102);&quot;&gt;I J K L M N Y&lt;/font&gt;&lt;/font&gt;&lt;/font&gt;&lt;/div&gt;&lt;div&gt;&lt;font style=&quot;background-color: transparent; color: rgb(214, 182, 86);&quot;&gt;&lt;font style=&quot;background-color: transparent; color: rgb(214, 182, 86);&quot;&gt;&lt;font style=&quot;background-color: transparent; color: rgb(130, 179, 102);&quot;&gt;&lt;font style=&quot;color: rgb(227, 120, 0);&quot;&gt;U&lt;/font&gt;&lt;font style=&quot;color: rgb(130, 179, 102);&quot;&gt;&amp;nbsp;&lt;/font&gt;&lt;font style=&quot;color: rgb(255, 51, 153);&quot;&gt;R S T&lt;/font&gt;&lt;font style=&quot;color: rgb(130, 179, 102);&quot;&gt;&amp;nbsp;&lt;/font&gt;&lt;font style=&quot;background-color: transparent; color: rgb(130, 179, 102);&quot;&gt;I J K L M N&lt;/font&gt;&lt;/font&gt;&lt;/font&gt;&lt;/font&gt;&lt;/div&gt;&lt;div&gt;&lt;font style=&quot;background-color: transparent; color: rgb(214, 182, 86);&quot;&gt;&lt;font style=&quot;background-color: transparent; color: rgb(214, 182, 86);&quot;&gt;&lt;font style=&quot;background-color: transparent; color: rgb(130, 179, 102);&quot;&gt;&lt;font style=&quot;background-color: transparent; color: rgb(130, 179, 102);&quot;&gt;&lt;font style=&quot;color: rgb(227, 120, 0);&quot;&gt;U&lt;/font&gt;&lt;font style=&quot;color: rgb(130, 179, 102);&quot;&gt;&amp;nbsp;&lt;/font&gt;&lt;font style=&quot;color: rgb(255, 51, 153);&quot;&gt;R S T&lt;/font&gt;&lt;font style=&quot;color: rgb(130, 179, 102);&quot;&gt;&amp;nbsp;&lt;/font&gt;&lt;font style=&quot;background-color: transparent; color: rgb(130, 179, 102);&quot;&gt;I J K L M&lt;/font&gt;&lt;/font&gt;&lt;/font&gt;&lt;/font&gt;&lt;/font&gt;&lt;/div&gt;&lt;div&gt;&lt;font style=&quot;background-color: transparent; color: rgb(214, 182, 86);&quot;&gt;&lt;font style=&quot;background-color: transparent; color: rgb(214, 182, 86);&quot;&gt;&lt;font style=&quot;background-color: transparent; color: rgb(130, 179, 102);&quot;&gt;&lt;font style=&quot;background-color: transparent; color: rgb(130, 179, 102);&quot;&gt;&lt;font style=&quot;background-color: transparent; color: rgb(130, 179, 102);&quot;&gt;&lt;font style=&quot;color: rgb(227, 120, 0);&quot;&gt;U&lt;/font&gt;&lt;font style=&quot;color: rgb(130, 179, 102);&quot;&gt;&amp;nbsp;&lt;/font&gt;&lt;font style=&quot;color: rgb(255, 51, 153);&quot;&gt;R S T&lt;/font&gt;&lt;font style=&quot;color: rgb(130, 179, 102);&quot;&gt;&amp;nbsp;&lt;/font&gt;&lt;font style=&quot;background-color: transparent; color: rgb(130, 179, 102);&quot;&gt;I J K L&lt;/font&gt;&lt;/font&gt;&lt;/font&gt;&lt;/font&gt;&lt;/font&gt;&lt;/font&gt;&lt;/div&gt;&lt;div&gt;&lt;font style=&quot;background-color: transparent; color: rgb(214, 182, 86);&quot;&gt;&lt;font style=&quot;background-color: transparent; color: rgb(214, 182, 86);&quot;&gt;&lt;font style=&quot;background-color: transparent; color: rgb(130, 179, 102);&quot;&gt;&lt;font style=&quot;background-color: transparent; color: rgb(130, 179, 102);&quot;&gt;&lt;font style=&quot;background-color: transparent; color: rgb(130, 179, 102);&quot;&gt;&lt;font style=&quot;background-color: transparent; color: rgb(130, 179, 102);&quot;&gt;&lt;font style=&quot;color: rgb(227, 120, 0);&quot;&gt;U&lt;/font&gt;&lt;font style=&quot;color: rgb(130, 179, 102);&quot;&gt;&amp;nbsp;&lt;/font&gt;&lt;font style=&quot;color: rgb(255, 51, 153);&quot;&gt;R S T&lt;/font&gt;&lt;font style=&quot;color: rgb(130, 179, 102);&quot;&gt;&amp;nbsp;&lt;/font&gt;&lt;font style=&quot;background-color: transparent; color: rgb(130, 179, 102);&quot;&gt;I J K&lt;/font&gt;&lt;/font&gt;&lt;/font&gt;&lt;/font&gt;&lt;/font&gt;&lt;/font&gt;&lt;/font&gt;&lt;/div&gt;&lt;div&gt;&lt;font style=&quot;background-color: transparent; color: rgb(214, 182, 86);&quot;&gt;&lt;font style=&quot;background-color: transparent; color: rgb(214, 182, 86);&quot;&gt;&lt;font style=&quot;background-color: transparent; color: rgb(130, 179, 102);&quot;&gt;&lt;font style=&quot;background-color: transparent; color: rgb(130, 179, 102);&quot;&gt;&lt;font style=&quot;background-color: transparent; color: rgb(130, 179, 102);&quot;&gt;&lt;font style=&quot;background-color: transparent; color: rgb(130, 179, 102);&quot;&gt;&lt;font style=&quot;background-color: transparent; color: rgb(130, 179, 102);&quot;&gt;&lt;font style=&quot;color: rgb(227, 120, 0);&quot;&gt;U&lt;/font&gt;&lt;font style=&quot;color: rgb(130, 179, 102);&quot;&gt;&amp;nbsp;&lt;/font&gt;&lt;font style=&quot;color: rgb(255, 51, 153);&quot;&gt;R S T&lt;/font&gt;&lt;font style=&quot;color: rgb(130, 179, 102);&quot;&gt;&amp;nbsp;&lt;/font&gt;&lt;font style=&quot;background-color: transparent; color: rgb(130, 179, 102);&quot;&gt;I J&lt;/font&gt;&lt;/font&gt;&lt;/font&gt;&lt;/font&gt;&lt;/font&gt;&lt;/font&gt;&lt;/font&gt;&lt;/font&gt;&lt;/div&gt;&lt;div&gt;&lt;font style=&quot;background-color: transparent; color: rgb(214, 182, 86);&quot;&gt;&lt;font style=&quot;background-color: transparent; color: rgb(214, 182, 86);&quot;&gt;&lt;font style=&quot;background-color: transparent; color: rgb(130, 179, 102);&quot;&gt;&lt;font style=&quot;background-color: transparent; color: rgb(130, 179, 102);&quot;&gt;&lt;font style=&quot;background-color: transparent; color: rgb(130, 179, 102);&quot;&gt;&lt;font style=&quot;background-color: transparent; color: rgb(130, 179, 102);&quot;&gt;&lt;font style=&quot;background-color: transparent; color: rgb(130, 179, 102);&quot;&gt;&lt;font style=&quot;background-color: transparent; color: rgb(130, 179, 102);&quot;&gt;&lt;font style=&quot;color: rgb(227, 120, 0);&quot;&gt;U&lt;/font&gt;&lt;font style=&quot;color: rgb(130, 179, 102);&quot;&gt;&amp;nbsp;&lt;/font&gt;&lt;font style=&quot;color: rgb(255, 51, 153);&quot;&gt;R S T&lt;/font&gt;&lt;font style=&quot;color: rgb(130, 179, 102);&quot;&gt;&amp;nbsp;&lt;/font&gt;&lt;font style=&quot;background-color: transparent; color: rgb(130, 179, 102);&quot;&gt;I&lt;/font&gt;&lt;/font&gt;&lt;/font&gt;&lt;/font&gt;&lt;/font&gt;&lt;/font&gt;&lt;/font&gt;&lt;/font&gt;&lt;/font&gt;&lt;/div&gt;&lt;div&gt;&lt;font style=&quot;background-color: transparent; color: rgb(214, 182, 86);&quot;&gt;&lt;font style=&quot;background-color: transparent; color: rgb(214, 182, 86);&quot;&gt;&lt;font style=&quot;background-color: transparent; color: rgb(130, 179, 102);&quot;&gt;&lt;font style=&quot;background-color: transparent; color: rgb(130, 179, 102);&quot;&gt;&lt;font style=&quot;background-color: transparent; color: rgb(130, 179, 102);&quot;&gt;&lt;font style=&quot;background-color: transparent; color: rgb(130, 179, 102);&quot;&gt;&lt;font style=&quot;background-color: transparent; color: rgb(130, 179, 102);&quot;&gt;&lt;font style=&quot;background-color: transparent; color: rgb(130, 179, 102);&quot;&gt;&lt;font style=&quot;background-color: transparent; color: rgb(130, 179, 102);&quot;&gt;&lt;font style=&quot;color: rgb(227, 120, 0);&quot;&gt;U&lt;/font&gt;&lt;font style=&quot;color: rgb(130, 179, 102);&quot;&gt;&amp;nbsp;&lt;/font&gt;&lt;font style=&quot;color: rgb(255, 51, 153);&quot;&gt;R S T&lt;/font&gt;&lt;/font&gt;&lt;/font&gt;&lt;/font&gt;&lt;/font&gt;&lt;/font&gt;&lt;/font&gt;&lt;/font&gt;&lt;/font&gt;&lt;/font&gt;&lt;/div&gt;&lt;div&gt;&lt;font style=&quot;background-color: transparent; color: rgb(214, 182, 86);&quot;&gt;&lt;font style=&quot;background-color: transparent; color: rgb(214, 182, 86);&quot;&gt;&lt;font style=&quot;background-color: transparent; color: rgb(130, 179, 102);&quot;&gt;&lt;font style=&quot;background-color: transparent; color: rgb(130, 179, 102);&quot;&gt;&lt;font style=&quot;background-color: transparent; color: rgb(130, 179, 102);&quot;&gt;&lt;font style=&quot;background-color: transparent; color: rgb(130, 179, 102);&quot;&gt;&lt;font style=&quot;background-color: transparent; color: rgb(130, 179, 102);&quot;&gt;&lt;font style=&quot;background-color: transparent; color: rgb(130, 179, 102);&quot;&gt;&lt;font style=&quot;background-color: transparent; color: rgb(130, 179, 102);&quot;&gt;&lt;font style=&quot;color: rgb(255, 51, 153);&quot;&gt;&lt;font style=&quot;color: rgb(227, 120, 0);&quot;&gt;U&lt;/font&gt;&lt;font style=&quot;color: rgb(130, 179, 102);&quot;&gt;&amp;nbsp;&lt;/font&gt;&lt;font style=&quot;color: rgb(255, 51, 153);&quot;&gt;R S&lt;/font&gt;&lt;/font&gt;&lt;/font&gt;&lt;/font&gt;&lt;/font&gt;&lt;/font&gt;&lt;/font&gt;&lt;/font&gt;&lt;/font&gt;&lt;/font&gt;&lt;/font&gt;&lt;/div&gt;&lt;div&gt;&lt;font style=&quot;background-color: transparent; color: rgb(214, 182, 86);&quot;&gt;&lt;font style=&quot;background-color: transparent; color: rgb(214, 182, 86);&quot;&gt;&lt;font style=&quot;background-color: transparent; color: rgb(130, 179, 102);&quot;&gt;&lt;font style=&quot;background-color: transparent; color: rgb(130, 179, 102);&quot;&gt;&lt;font style=&quot;background-color: transparent; color: rgb(130, 179, 102);&quot;&gt;&lt;font style=&quot;background-color: transparent; color: rgb(130, 179, 102);&quot;&gt;&lt;font style=&quot;background-color: transparent; color: rgb(130, 179, 102);&quot;&gt;&lt;font style=&quot;background-color: transparent; color: rgb(130, 179, 102);&quot;&gt;&lt;font style=&quot;background-color: transparent; color: rgb(130, 179, 102);&quot;&gt;&lt;font style=&quot;color: rgb(255, 51, 153);&quot;&gt;&lt;font style=&quot;color: rgb(255, 51, 153);&quot;&gt;&lt;font style=&quot;color: rgb(227, 120, 0);&quot;&gt;U&lt;/font&gt;&lt;font style=&quot;color: rgb(130, 179, 102);&quot;&gt;&amp;nbsp;&lt;/font&gt;&lt;font style=&quot;color: rgb(255, 51, 153);&quot;&gt;R&lt;/font&gt;&lt;/font&gt;&lt;/font&gt;&lt;/font&gt;&lt;/font&gt;&lt;/font&gt;&lt;/font&gt;&lt;/font&gt;&lt;/font&gt;&lt;/font&gt;&lt;/font&gt;&lt;/font&gt;&lt;/div&gt;&lt;div&gt;&lt;font style=&quot;background-color: transparent; color: rgb(214, 182, 86);&quot;&gt;&lt;font style=&quot;background-color: transparent; color: rgb(214, 182, 86);&quot;&gt;&lt;font style=&quot;background-color: transparent; color: rgb(130, 179, 102);&quot;&gt;&lt;font style=&quot;background-color: transparent; color: rgb(130, 179, 102);&quot;&gt;&lt;font style=&quot;background-color: transparent; color: rgb(130, 179, 102);&quot;&gt;&lt;font style=&quot;background-color: transparent; color: rgb(130, 179, 102);&quot;&gt;&lt;font style=&quot;background-color: transparent; color: rgb(130, 179, 102);&quot;&gt;&lt;font style=&quot;background-color: transparent; color: rgb(130, 179, 102);&quot;&gt;&lt;font style=&quot;background-color: transparent; color: rgb(130, 179, 102);&quot;&gt;&lt;font style=&quot;color: rgb(255, 51, 153);&quot;&gt;&lt;font style=&quot;color: rgb(255, 51, 153);&quot;&gt;&lt;font style=&quot;color: rgb(255, 51, 153);&quot;&gt;&lt;font style=&quot;color: rgb(227, 120, 0);&quot;&gt;U&lt;/font&gt;&lt;/font&gt;&lt;/font&gt;&lt;/font&gt;&lt;/font&gt;&lt;/font&gt;&lt;/font&gt;&lt;/font&gt;&lt;/font&gt;&lt;/font&gt;&lt;/font&gt;&lt;/font&gt;&lt;/font&gt;&lt;/div&gt;&lt;div&gt;&lt;br&gt;&lt;/div&gt;" style="text;html=1;align=left;verticalAlign=middle;whiteSpace=wrap;rounded=0;" vertex="1" parent="1">
          <mxGeometry x="614" y="340" width="166" height="160" as="geometry" />
        </mxCell>
        <mxCell id="7kfpPNPAqjjxTRJiWUl3-117" value="" style="shape=curlyBracket;whiteSpace=wrap;html=1;rounded=1;flipH=1;labelPosition=right;verticalLabelPosition=middle;align=left;verticalAlign=middle;" vertex="1" parent="1">
          <mxGeometry x="790" y="170" width="20" height="140" as="geometry" />
        </mxCell>
        <mxCell id="7kfpPNPAqjjxTRJiWUl3-118" value="Q1" style="text;html=1;align=center;verticalAlign=middle;whiteSpace=wrap;rounded=0;" vertex="1" parent="1">
          <mxGeometry x="810" y="225" width="30" height="30" as="geometry" />
        </mxCell>
        <mxCell id="7kfpPNPAqjjxTRJiWUl3-119" value="" style="shape=curlyBracket;whiteSpace=wrap;html=1;rounded=1;flipH=1;labelPosition=right;verticalLabelPosition=middle;align=left;verticalAlign=middle;" vertex="1" parent="1">
          <mxGeometry x="840" y="170" width="20" height="340" as="geometry" />
        </mxCell>
        <mxCell id="7kfpPNPAqjjxTRJiWUl3-120" value="Q2" style="text;html=1;align=center;verticalAlign=middle;whiteSpace=wrap;rounded=0;" vertex="1" parent="1">
          <mxGeometry x="860" y="325" width="30" height="30" as="geometry" />
        </mxCell>
      </root>
    </mxGraphModel>
  </diagram>
</mxfile>
